<mxfile host="app.diagrams.net" modified="2023-12-26T03:06:42.530Z" agent="5.0 (Windows NT 10.0; WOW64) AppleWebKit/537.36 (KHTML, like Gecko) Chrome/86.0.4240.198 Safari/537.36" etag="IkTkZG4rmcDQlHFgv1Vu" version="20.6.0" type="github">
  <diagram name="Page-1" id="b520641d-4fe3-3701-9064-5fc419738815">
    <mxGraphModel dx="1179" dy="628" grid="1" gridSize="10" guides="1" tooltips="1" connect="1" arrows="1" fold="1" page="1" pageScale="1" pageWidth="1100" pageHeight="850" background="none" math="0" shadow="0">
      <root>
        <mxCell id="0" />
        <mxCell id="1" parent="0" />
        <mxCell id="aK4AxkKMEJU3kP0hYnN9-32" value="是" style="edgeStyle=orthogonalEdgeStyle;rounded=0;orthogonalLoop=1;jettySize=auto;html=1;" edge="1" parent="1" source="aK4AxkKMEJU3kP0hYnN9-1" target="aK4AxkKMEJU3kP0hYnN9-27">
          <mxGeometry relative="1" as="geometry" />
        </mxCell>
        <mxCell id="aK4AxkKMEJU3kP0hYnN9-37" value="" style="edgeStyle=orthogonalEdgeStyle;rounded=0;orthogonalLoop=1;jettySize=auto;html=1;" edge="1" parent="1" source="aK4AxkKMEJU3kP0hYnN9-1" target="aK4AxkKMEJU3kP0hYnN9-36">
          <mxGeometry relative="1" as="geometry" />
        </mxCell>
        <mxCell id="aK4AxkKMEJU3kP0hYnN9-1" value="是否携带token" style="rhombus;whiteSpace=wrap;html=1;" vertex="1" parent="1">
          <mxGeometry x="360" y="170" width="130" height="40" as="geometry" />
        </mxCell>
        <mxCell id="aK4AxkKMEJU3kP0hYnN9-25" value="" style="edgeStyle=orthogonalEdgeStyle;rounded=0;orthogonalLoop=1;jettySize=auto;html=1;" edge="1" parent="1" source="aK4AxkKMEJU3kP0hYnN9-22" target="aK4AxkKMEJU3kP0hYnN9-24">
          <mxGeometry relative="1" as="geometry" />
        </mxCell>
        <mxCell id="aK4AxkKMEJU3kP0hYnN9-22" value="发起请求" style="ellipse;whiteSpace=wrap;html=1;fillColor=#ffe6cc;strokeColor=#d79b00;" vertex="1" parent="1">
          <mxGeometry x="380" y="40" width="90" height="50" as="geometry" />
        </mxCell>
        <mxCell id="aK4AxkKMEJU3kP0hYnN9-23" value="请求禁止(403)" style="ellipse;whiteSpace=wrap;html=1;fillColor=#e51400;strokeColor=#B20000;fontColor=#ffffff;" vertex="1" parent="1">
          <mxGeometry x="140" y="560" width="90" height="50" as="geometry" />
        </mxCell>
        <mxCell id="aK4AxkKMEJU3kP0hYnN9-29" value="" style="edgeStyle=orthogonalEdgeStyle;rounded=0;orthogonalLoop=1;jettySize=auto;html=1;" edge="1" parent="1" source="aK4AxkKMEJU3kP0hYnN9-24" target="aK4AxkKMEJU3kP0hYnN9-1">
          <mxGeometry relative="1" as="geometry" />
        </mxCell>
        <mxCell id="aK4AxkKMEJU3kP0hYnN9-24" value="进入TokenFilter" style="rounded=0;whiteSpace=wrap;html=1;fillColor=#e1d5e7;strokeColor=#9673a6;" vertex="1" parent="1">
          <mxGeometry x="365" y="118" width="120" height="30" as="geometry" />
        </mxCell>
        <mxCell id="aK4AxkKMEJU3kP0hYnN9-57" style="edgeStyle=orthogonalEdgeStyle;rounded=0;orthogonalLoop=1;jettySize=auto;html=1;entryX=0.5;entryY=0;entryDx=0;entryDy=0;" edge="1" parent="1" source="aK4AxkKMEJU3kP0hYnN9-27" target="aK4AxkKMEJU3kP0hYnN9-56">
          <mxGeometry relative="1" as="geometry" />
        </mxCell>
        <mxCell id="aK4AxkKMEJU3kP0hYnN9-27" value="进入AuthFilter" style="rounded=0;whiteSpace=wrap;html=1;fillColor=#e1d5e7;strokeColor=#9673a6;" vertex="1" parent="1">
          <mxGeometry x="365" y="250" width="120" height="30" as="geometry" />
        </mxCell>
        <mxCell id="aK4AxkKMEJU3kP0hYnN9-45" value="" style="edgeStyle=orthogonalEdgeStyle;rounded=0;orthogonalLoop=1;jettySize=auto;html=1;" edge="1" parent="1" source="aK4AxkKMEJU3kP0hYnN9-36">
          <mxGeometry relative="1" as="geometry">
            <mxPoint x="754.9999999999998" y="190" as="targetPoint" />
          </mxGeometry>
        </mxCell>
        <mxCell id="aK4AxkKMEJU3kP0hYnN9-47" value="是" style="edgeLabel;html=1;align=center;verticalAlign=middle;resizable=0;points=[];" vertex="1" connectable="0" parent="aK4AxkKMEJU3kP0hYnN9-45">
          <mxGeometry x="-0.2118" y="1" relative="1" as="geometry">
            <mxPoint as="offset" />
          </mxGeometry>
        </mxCell>
        <mxCell id="aK4AxkKMEJU3kP0hYnN9-50" value="否" style="edgeStyle=orthogonalEdgeStyle;rounded=0;orthogonalLoop=1;jettySize=auto;html=1;" edge="1" parent="1" source="aK4AxkKMEJU3kP0hYnN9-36">
          <mxGeometry relative="1" as="geometry">
            <mxPoint x="606" y="250" as="targetPoint" />
          </mxGeometry>
        </mxCell>
        <mxCell id="aK4AxkKMEJU3kP0hYnN9-36" value="是否白名单" style="rhombus;whiteSpace=wrap;html=1;" vertex="1" parent="1">
          <mxGeometry x="540" y="170" width="130" height="40" as="geometry" />
        </mxCell>
        <mxCell id="aK4AxkKMEJU3kP0hYnN9-46" value="请求通过" style="ellipse;whiteSpace=wrap;html=1;fillColor=#d5e8d4;strokeColor=#82b366;" vertex="1" parent="1">
          <mxGeometry x="750" y="165" width="90" height="50" as="geometry" />
        </mxCell>
        <mxCell id="aK4AxkKMEJU3kP0hYnN9-51" value="是" style="edgeStyle=orthogonalEdgeStyle;rounded=0;orthogonalLoop=1;jettySize=auto;html=1;" edge="1" parent="1" target="aK4AxkKMEJU3kP0hYnN9-27">
          <mxGeometry relative="1" as="geometry">
            <mxPoint x="546" y="265" as="sourcePoint" />
          </mxGeometry>
        </mxCell>
        <mxCell id="aK4AxkKMEJU3kP0hYnN9-53" style="edgeStyle=orthogonalEdgeStyle;rounded=0;orthogonalLoop=1;jettySize=auto;html=1;entryX=0.5;entryY=1;entryDx=0;entryDy=0;" edge="1" parent="1" target="aK4AxkKMEJU3kP0hYnN9-46">
          <mxGeometry relative="1" as="geometry">
            <mxPoint x="666" y="265" as="sourcePoint" />
            <mxPoint x="800.0000000000002" y="235" as="targetPoint" />
          </mxGeometry>
        </mxCell>
        <mxCell id="aK4AxkKMEJU3kP0hYnN9-55" value="否" style="edgeLabel;html=1;align=center;verticalAlign=middle;resizable=0;points=[];" vertex="1" connectable="0" parent="aK4AxkKMEJU3kP0hYnN9-53">
          <mxGeometry x="-0.5531" y="1" relative="1" as="geometry">
            <mxPoint y="1" as="offset" />
          </mxGeometry>
        </mxCell>
        <mxCell id="aK4AxkKMEJU3kP0hYnN9-63" value="" style="edgeStyle=orthogonalEdgeStyle;rounded=0;orthogonalLoop=1;jettySize=auto;html=1;" edge="1" parent="1" source="aK4AxkKMEJU3kP0hYnN9-56" target="aK4AxkKMEJU3kP0hYnN9-62">
          <mxGeometry relative="1" as="geometry" />
        </mxCell>
        <mxCell id="aK4AxkKMEJU3kP0hYnN9-128" style="edgeStyle=orthogonalEdgeStyle;rounded=0;orthogonalLoop=1;jettySize=auto;html=1;entryX=0;entryY=0.5;entryDx=0;entryDy=0;fontColor=#006633;" edge="1" parent="1" source="aK4AxkKMEJU3kP0hYnN9-56" target="aK4AxkKMEJU3kP0hYnN9-126">
          <mxGeometry relative="1" as="geometry">
            <Array as="points">
              <mxPoint x="110" y="320" />
              <mxPoint x="110" y="685" />
            </Array>
          </mxGeometry>
        </mxCell>
        <mxCell id="aK4AxkKMEJU3kP0hYnN9-129" value="无缓存" style="edgeLabel;html=1;align=center;verticalAlign=middle;resizable=0;points=[];fontColor=#006633;" vertex="1" connectable="0" parent="aK4AxkKMEJU3kP0hYnN9-128">
          <mxGeometry x="-0.792" relative="1" as="geometry">
            <mxPoint as="offset" />
          </mxGeometry>
        </mxCell>
        <mxCell id="aK4AxkKMEJU3kP0hYnN9-56" value="查询接口redis缓存" style="rounded=0;whiteSpace=wrap;html=1;fillColor=#647687;strokeColor=#314354;fontColor=#ffffff;" vertex="1" parent="1">
          <mxGeometry x="365" y="306" width="120" height="30" as="geometry" />
        </mxCell>
        <mxCell id="aK4AxkKMEJU3kP0hYnN9-59" value="是否开启权限校验" style="rhombus;whiteSpace=wrap;html=1;fillColor=#f0a30a;fontColor=#000000;strokeColor=#BD7000;" vertex="1" parent="1">
          <mxGeometry x="546" y="245" width="130" height="40" as="geometry" />
        </mxCell>
        <mxCell id="aK4AxkKMEJU3kP0hYnN9-65" value="" style="edgeStyle=orthogonalEdgeStyle;rounded=0;orthogonalLoop=1;jettySize=auto;html=1;" edge="1" parent="1" source="aK4AxkKMEJU3kP0hYnN9-62" target="aK4AxkKMEJU3kP0hYnN9-64">
          <mxGeometry relative="1" as="geometry" />
        </mxCell>
        <mxCell id="aK4AxkKMEJU3kP0hYnN9-62" value="ant路径匹配" style="rounded=0;whiteSpace=wrap;html=1;fillColor=#647687;strokeColor=#314354;fontColor=#ffffff;" vertex="1" parent="1">
          <mxGeometry x="365" y="360" width="120" height="30" as="geometry" />
        </mxCell>
        <mxCell id="aK4AxkKMEJU3kP0hYnN9-67" value="否" style="edgeStyle=orthogonalEdgeStyle;rounded=0;orthogonalLoop=1;jettySize=auto;html=1;" edge="1" parent="1" source="aK4AxkKMEJU3kP0hYnN9-64" target="aK4AxkKMEJU3kP0hYnN9-66">
          <mxGeometry relative="1" as="geometry" />
        </mxCell>
        <mxCell id="aK4AxkKMEJU3kP0hYnN9-100" value="是" style="edgeStyle=orthogonalEdgeStyle;rounded=0;orthogonalLoop=1;jettySize=auto;html=1;entryX=1;entryY=0.5;entryDx=0;entryDy=0;fontColor=#006633;" edge="1" parent="1" source="aK4AxkKMEJU3kP0hYnN9-64" target="aK4AxkKMEJU3kP0hYnN9-74">
          <mxGeometry relative="1" as="geometry">
            <Array as="points">
              <mxPoint x="605" y="440" />
            </Array>
          </mxGeometry>
        </mxCell>
        <mxCell id="aK4AxkKMEJU3kP0hYnN9-64" value="是否匹配到" style="rhombus;whiteSpace=wrap;html=1;" vertex="1" parent="1">
          <mxGeometry x="540" y="355" width="130" height="40" as="geometry" />
        </mxCell>
        <mxCell id="aK4AxkKMEJU3kP0hYnN9-70" style="edgeStyle=orthogonalEdgeStyle;rounded=0;orthogonalLoop=1;jettySize=auto;html=1;exitX=1;exitY=0.5;exitDx=0;exitDy=0;entryX=1;entryY=0.5;entryDx=0;entryDy=0;" edge="1" parent="1" source="aK4AxkKMEJU3kP0hYnN9-66" target="aK4AxkKMEJU3kP0hYnN9-46">
          <mxGeometry relative="1" as="geometry" />
        </mxCell>
        <mxCell id="aK4AxkKMEJU3kP0hYnN9-71" value="否" style="edgeLabel;html=1;align=center;verticalAlign=middle;resizable=0;points=[];" vertex="1" connectable="0" parent="aK4AxkKMEJU3kP0hYnN9-70">
          <mxGeometry x="-0.2919" y="3" relative="1" as="geometry">
            <mxPoint as="offset" />
          </mxGeometry>
        </mxCell>
        <mxCell id="aK4AxkKMEJU3kP0hYnN9-95" style="edgeStyle=orthogonalEdgeStyle;rounded=0;orthogonalLoop=1;jettySize=auto;html=1;" edge="1" parent="1" source="aK4AxkKMEJU3kP0hYnN9-66" target="aK4AxkKMEJU3kP0hYnN9-94">
          <mxGeometry relative="1" as="geometry" />
        </mxCell>
        <mxCell id="aK4AxkKMEJU3kP0hYnN9-96" value="是" style="edgeLabel;html=1;align=center;verticalAlign=middle;resizable=0;points=[];" vertex="1" connectable="0" parent="aK4AxkKMEJU3kP0hYnN9-95">
          <mxGeometry x="-0.2343" y="1" relative="1" as="geometry">
            <mxPoint as="offset" />
          </mxGeometry>
        </mxCell>
        <mxCell id="aK4AxkKMEJU3kP0hYnN9-66" value="是否开启全量拦截" style="rhombus;whiteSpace=wrap;html=1;fillColor=#fa6800;fontColor=#000000;strokeColor=#C73500;" vertex="1" parent="1">
          <mxGeometry x="710" y="355" width="130" height="40" as="geometry" />
        </mxCell>
        <mxCell id="aK4AxkKMEJU3kP0hYnN9-99" value="&lt;span style=&quot;font-size: 12px; background-color: rgb(248, 249, 250);&quot;&gt;accessType&lt;/span&gt;=1" style="edgeStyle=orthogonalEdgeStyle;rounded=0;orthogonalLoop=1;jettySize=auto;html=1;entryX=1;entryY=0.5;entryDx=0;entryDy=0;" edge="1" parent="1" source="aK4AxkKMEJU3kP0hYnN9-74" target="aK4AxkKMEJU3kP0hYnN9-98">
          <mxGeometry relative="1" as="geometry" />
        </mxCell>
        <mxCell id="aK4AxkKMEJU3kP0hYnN9-108" style="edgeStyle=orthogonalEdgeStyle;rounded=0;orthogonalLoop=1;jettySize=auto;html=1;entryX=1;entryY=0.5;entryDx=0;entryDy=0;fontColor=#006633;" edge="1" parent="1">
          <mxGeometry relative="1" as="geometry">
            <mxPoint x="378" y="455" as="sourcePoint" />
            <mxPoint x="348" y="520" as="targetPoint" />
            <Array as="points">
              <mxPoint x="370" y="455" />
              <mxPoint x="370" y="470" />
              <mxPoint x="368" y="470" />
              <mxPoint x="368" y="520" />
            </Array>
          </mxGeometry>
        </mxCell>
        <mxCell id="aK4AxkKMEJU3kP0hYnN9-109" value="&lt;span style=&quot;color: rgb(0, 0, 0); font-size: 12px; background-color: rgb(248, 249, 250);&quot;&gt;accessType&lt;/span&gt;&lt;span style=&quot;color: rgb(0, 0, 0);&quot;&gt;=3&lt;/span&gt;" style="edgeLabel;html=1;align=center;verticalAlign=middle;resizable=0;points=[];fontColor=#006633;" vertex="1" connectable="0" parent="aK4AxkKMEJU3kP0hYnN9-108">
          <mxGeometry x="-0.186" relative="1" as="geometry">
            <mxPoint x="-28" as="offset" />
          </mxGeometry>
        </mxCell>
        <mxCell id="aK4AxkKMEJU3kP0hYnN9-120" value="" style="edgeStyle=orthogonalEdgeStyle;rounded=0;orthogonalLoop=1;jettySize=auto;html=1;fontColor=#006633;" edge="1" parent="1" source="aK4AxkKMEJU3kP0hYnN9-74" target="aK4AxkKMEJU3kP0hYnN9-119">
          <mxGeometry relative="1" as="geometry">
            <Array as="points">
              <mxPoint x="450" y="470" />
              <mxPoint x="450" y="470" />
            </Array>
          </mxGeometry>
        </mxCell>
        <mxCell id="aK4AxkKMEJU3kP0hYnN9-74" value="accessType判断" style="rounded=0;whiteSpace=wrap;html=1;fillColor=#647687;strokeColor=#314354;fontColor=#ffffff;" vertex="1" parent="1">
          <mxGeometry x="365" y="425" width="120" height="30" as="geometry" />
        </mxCell>
        <mxCell id="aK4AxkKMEJU3kP0hYnN9-94" value="请求禁止(403)" style="ellipse;whiteSpace=wrap;html=1;fillColor=#e51400;strokeColor=#B20000;fontColor=#ffffff;" vertex="1" parent="1">
          <mxGeometry x="730" y="570" width="90" height="50" as="geometry" />
        </mxCell>
        <mxCell id="aK4AxkKMEJU3kP0hYnN9-98" value="请求通过" style="ellipse;whiteSpace=wrap;html=1;fillColor=#d5e8d4;strokeColor=#82b366;" vertex="1" parent="1">
          <mxGeometry x="140" y="415" width="90" height="50" as="geometry" />
        </mxCell>
        <mxCell id="aK4AxkKMEJU3kP0hYnN9-117" value="否" style="edgeStyle=orthogonalEdgeStyle;rounded=0;orthogonalLoop=1;jettySize=auto;html=1;fontColor=#006633;entryX=0.5;entryY=1;entryDx=0;entryDy=0;" edge="1" parent="1" source="aK4AxkKMEJU3kP0hYnN9-106" target="aK4AxkKMEJU3kP0hYnN9-98">
          <mxGeometry relative="1" as="geometry">
            <mxPoint x="190" y="490" as="targetPoint" />
            <Array as="points">
              <mxPoint x="190" y="520" />
              <mxPoint x="190" y="465" />
            </Array>
          </mxGeometry>
        </mxCell>
        <mxCell id="aK4AxkKMEJU3kP0hYnN9-118" value="是" style="edgeStyle=orthogonalEdgeStyle;rounded=0;orthogonalLoop=1;jettySize=auto;html=1;entryX=1;entryY=0.5;entryDx=0;entryDy=0;fontColor=#006633;" edge="1" parent="1" source="aK4AxkKMEJU3kP0hYnN9-106" target="aK4AxkKMEJU3kP0hYnN9-23">
          <mxGeometry relative="1" as="geometry" />
        </mxCell>
        <mxCell id="aK4AxkKMEJU3kP0hYnN9-106" value="token是否为空&lt;br&gt;" style="rhombus;whiteSpace=wrap;html=1;" vertex="1" parent="1">
          <mxGeometry x="220" y="500" width="130" height="40" as="geometry" />
        </mxCell>
        <mxCell id="aK4AxkKMEJU3kP0hYnN9-132" value="是" style="edgeStyle=orthogonalEdgeStyle;rounded=0;orthogonalLoop=1;jettySize=auto;html=1;exitX=0.5;exitY=1;exitDx=0;exitDy=0;entryX=1;entryY=0.5;entryDx=0;entryDy=0;fontColor=#006633;" edge="1" parent="1" source="aK4AxkKMEJU3kP0hYnN9-119" target="aK4AxkKMEJU3kP0hYnN9-131">
          <mxGeometry relative="1" as="geometry" />
        </mxCell>
        <mxCell id="aK4AxkKMEJU3kP0hYnN9-133" value="f否" style="edgeStyle=orthogonalEdgeStyle;rounded=0;orthogonalLoop=1;jettySize=auto;html=1;entryX=0.5;entryY=1;entryDx=0;entryDy=0;fontColor=#006633;" edge="1" parent="1" source="aK4AxkKMEJU3kP0hYnN9-119" target="aK4AxkKMEJU3kP0hYnN9-94">
          <mxGeometry x="0.0323" y="5" relative="1" as="geometry">
            <mxPoint as="offset" />
          </mxGeometry>
        </mxCell>
        <mxCell id="aK4AxkKMEJU3kP0hYnN9-119" value="判断用户是否有该接口权限" style="whiteSpace=wrap;html=1;fillColor=#a0522d;strokeColor=#6D1F00;fontColor=#ffffff;rounded=0;" vertex="1" parent="1">
          <mxGeometry x="370" y="670" width="160" height="30" as="geometry" />
        </mxCell>
        <mxCell id="aK4AxkKMEJU3kP0hYnN9-121" value="&lt;span style=&quot;color: rgb(0, 0, 0); font-size: 12px; background-color: rgb(248, 249, 250);&quot;&gt;accessType&lt;/span&gt;&lt;span style=&quot;color: rgb(0, 0, 0);&quot;&gt;=3&lt;/span&gt;" style="edgeLabel;html=1;align=center;verticalAlign=middle;resizable=0;points=[];fontColor=#006633;" vertex="1" connectable="0" parent="1">
          <mxGeometry x="350.0000000000002" y="490.0033333333335" as="geometry">
            <mxPoint x="104" y="-6" as="offset" />
          </mxGeometry>
        </mxCell>
        <mxCell id="aK4AxkKMEJU3kP0hYnN9-134" value="有token" style="edgeStyle=orthogonalEdgeStyle;rounded=0;orthogonalLoop=1;jettySize=auto;html=1;entryX=0;entryY=0.5;entryDx=0;entryDy=0;fontColor=#006633;" edge="1" parent="1" source="aK4AxkKMEJU3kP0hYnN9-126" target="aK4AxkKMEJU3kP0hYnN9-131">
          <mxGeometry relative="1" as="geometry" />
        </mxCell>
        <mxCell id="aK4AxkKMEJU3kP0hYnN9-135" style="edgeStyle=orthogonalEdgeStyle;rounded=0;orthogonalLoop=1;jettySize=auto;html=1;fontColor=#006633;" edge="1" parent="1" source="aK4AxkKMEJU3kP0hYnN9-126" target="aK4AxkKMEJU3kP0hYnN9-23">
          <mxGeometry relative="1" as="geometry" />
        </mxCell>
        <mxCell id="aK4AxkKMEJU3kP0hYnN9-137" value="无token" style="edgeLabel;html=1;align=center;verticalAlign=middle;resizable=0;points=[];fontColor=#006633;" vertex="1" connectable="0" parent="aK4AxkKMEJU3kP0hYnN9-135">
          <mxGeometry x="-0.4286" y="-1" relative="1" as="geometry">
            <mxPoint as="offset" />
          </mxGeometry>
        </mxCell>
        <mxCell id="aK4AxkKMEJU3kP0hYnN9-126" value="添加接口数据到redis缓存" style="rounded=0;whiteSpace=wrap;html=1;fillColor=#a0522d;strokeColor=#6D1F00;fontColor=#ffffff;" vertex="1" parent="1">
          <mxGeometry x="150" y="670" width="160" height="30" as="geometry" />
        </mxCell>
        <mxCell id="aK4AxkKMEJU3kP0hYnN9-131" value="请求通过" style="ellipse;whiteSpace=wrap;html=1;fillColor=#d5e8d4;strokeColor=#82b366;" vertex="1" parent="1">
          <mxGeometry x="290" y="770" width="90" height="50" as="geometry" />
        </mxCell>
      </root>
    </mxGraphModel>
  </diagram>
</mxfile>
